# xmcd
#
# Track frame offsets: 
#        150
#        15150
#        25600
#        37915
#        50477
#        60985
#        70860
#        80327
#        89560
#        100397
#
# Disc length: 1468 seconds
#
# Revision: 1
# Processed by: cddbd v1.4PL0 Copyright (c) Steve Scherf et al.
# Submitted via: ExactAudioCopy v0.90b3
#
DISCID=6c05ba0a
DTITLE=George Jones - Salutes Hank Williams
DYEAR=1900
DGENRE=Country
TTITLE0=Cold Cold Heart
TTITLE1=Hey Good Lookin'
TTITLE2=Howlin' At The Moon
TTITLE3=There'll Be No Teardrops Tonight
TTITLE4=Half As Much
TTITLE5=Jambalaya (On The Bayou)
TTITLE6=Why Don't You Love Me
TTITLE7=Honky Tonkin'
TTITLE8=I Can't Help It
TTITLE9=Settin' The Woods On Fire
EXTD=
EXTT0=
EXTT1=
EXTT2=
EXTT3=
EXTT4=
EXTT5=
EXTT6=
EXTT7=
EXTT8=
EXTT9=
PLAYORDER=
